<?xml version="1.0" standalone="no"?>
<!DOCTYPE svg PUBLIC "-//W3C//DTD SVG 20010904//EN"
 "http://www.w3.org/TR/2001/REC-SVG-20010904/DTD/svg10.dtd">
<svg version="1.0" xmlns="http://www.w3.org/2000/svg"
 width="512.000000pt" height="512.000000pt" viewBox="0 0 512.000000 512.000000"
 preserveAspectRatio="xMidYMid meet">

<g transform="translate(0.000000,512.000000) scale(0.100000,-0.100000)"
fill="#000000" stroke="none">
<path d="M1195 5023 c-110 -8 -206 -20 -214 -26 -10 -9 -12 -58 -10 -249 4
-211 6 -239 22 -255 13 -14 21 -15 35 -7 15 10 17 35 20 227 2 215 3 217 25
221 12 3 110 10 217 17 107 6 203 16 213 21 12 6 17 18 15 36 -3 26 -6 27 -63
28 -33 1 -150 -5 -260 -13z"/>
<path d="M3607 5033 c-14 -13 -7 -52 11 -61 9 -5 105 -15 212 -21 107 -7 205
-14 218 -17 22 -4 22 -5 22 -219 0 -199 1 -215 19 -224 13 -7 24 -6 37 3 16
12 18 35 22 253 4 194 2 241 -9 250 -8 6 -118 18 -249 27 -264 18 -274 19
-283 9z"/>
<path d="M2443 4839 c-320 -31 -587 -152 -797 -363 -393 -395 -531 -935 -367
-1436 35 -106 126 -279 195 -370 170 -225 449 -427 699 -506 l58 -18 -8 -40
c-4 -23 -8 -73 -8 -111 0 -58 5 -78 27 -117 26 -43 73 -91 98 -100 7 -2 6 -18
-5 -48 -28 -78 -102 -391 -124 -520 -34 -206 -44 -316 -45 -500 -1 -263 39
-403 145 -515 69 -73 139 -107 234 -113 226 -14 426 158 491 423 22 87 24 337
5 475 -24 177 -81 484 -117 628 l-35 144 41 45 c66 70 94 143 92 233 -1 41 -3
86 -4 99 -3 21 4 26 62 46 315 108 589 329 754 608 273 461 282 1037 24 1455
-65 105 -233 278 -333 344 -218 143 -482 230 -780 258 -122 11 -181 11 -302
-1z m467 -99 c286 -52 532 -169 711 -337 237 -224 364 -559 346 -912 -21 -402
-203 -776 -490 -1007 -272 -218 -596 -327 -931 -311 -344 16 -650 158 -901
418 -493 512 -471 1297 51 1824 190 192 434 309 716 345 113 14 366 4 498 -20z
m29 -2641 c37 -105 -29 -253 -134 -300 -28 -13 -64 -19 -120 -18 -112 0 -282
39 -292 67 -3 7 8 28 26 46 38 39 39 62 4 98 l-27 28 29 30 c16 17 34 30 40
30 19 0 70 -60 70 -82 0 -12 5 -23 11 -25 11 -4 105 87 112 107 6 18 36 10 63
-16 23 -22 26 -30 16 -45 -14 -22 -4 -34 20 -24 10 5 26 7 36 6 12 -2 17 5 17
22 0 13 11 34 25 47 l25 23 23 -21 c13 -12 29 -22 35 -22 17 0 15 35 -3 50 -8
7 -12 16 -9 21 10 17 22 9 33 -22z m-520 4 c3 -2 -7 -16 -22 -30 l-27 -27 -30
29 c-16 16 -30 33 -30 37 0 8 100 0 109 -9z m378 -20 c-14 -14 -18 -14 -33 -2
-16 13 -15 14 12 20 37 7 42 3 21 -18z m-200 -20 l-27 -28 -27 28 -28 27 55 0
55 0 -28 -27z m-272 -23 c17 -19 17 -21 2 -38 -34 -37 -11 -58 25 -25 18 16
20 15 44 -8 l24 -25 -31 -29 -30 -30 -35 37 c-29 33 -34 45 -34 88 0 54 7 61
35 30z m175 -319 c0 -18 -18 -21 -30 -6 -10 13 -9 15 9 15 11 0 21 -4 21 -9z
m-67 -73 c-15 -15 -30 -28 -35 -28 -11 0 -10 31 3 69 l11 32 24 -22 24 -23
-27 -28z m151 -8 l-20 -20 -24 25 c-23 24 -23 25 -5 45 l19 21 25 -26 25 -25
-20 -20z m155 47 c8 -11 5 -19 -14 -37 -24 -23 -25 -23 -45 -5 -19 17 -19 19
-4 37 20 21 47 23 63 5z m91 -17 c0 -5 -2 -10 -4 -10 -3 0 -8 5 -11 10 -3 6
-1 10 4 10 6 0 11 -4 11 -10z m54 -240 c67 -322 89 -488 90 -680 1 -137 -3
-189 -16 -238 -43 -156 -122 -258 -244 -318 -63 -32 -84 -37 -141 -37 -83 0
-150 30 -207 93 -53 58 -64 86 -43 107 15 15 18 15 37 -2 15 -14 23 -16 32 -7
9 9 7 17 -7 32 -18 20 -18 21 24 64 40 41 47 66 18 66 -6 0 -30 -18 -52 -40
l-41 -40 -41 42 c-36 38 -42 50 -48 104 -4 35 -3 64 3 67 5 4 26 -12 47 -33
22 -22 45 -40 52 -40 24 0 13 26 -27 65 l-40 39 71 72 c66 66 79 94 45 94 -8
0 -19 -7 -26 -15 -12 -14 -19 -11 -57 27 l-43 42 36 37 c26 26 42 35 56 31 17
-4 20 -1 16 16 -4 15 5 31 33 58 22 21 39 44 39 50 0 28 -22 23 -65 -17 l-46
-42 -35 34 c-40 39 -40 67 1 108 23 23 25 24 43 8 22 -20 52 -22 52 -4 0 8 -9
22 -20 32 -21 19 -20 19 22 62 50 51 59 95 25 131 l-21 23 32 31 c25 25 34 30
44 20 16 -16 48 -15 48 2 0 7 -7 19 -15 26 -11 9 -13 16 -5 24 21 21 11 39
-19 33 -20 -4 -33 -1 -45 12 -15 16 -14 19 14 46 29 28 30 28 51 9 12 -10 25
-29 30 -41 6 -15 14 -20 28 -16 12 3 21 11 21 18 0 6 9 20 20 30 20 18 21 18
59 -19 36 -35 61 -41 61 -14 0 7 10 22 21 34 16 17 29 22 50 17 21 -4 29 -1
30 8 1 24 18 -41 53 -211z m-476 53 c-28 -29 -34 -31 -46 -19 -12 12 -12 23
-2 66 l12 52 34 -33 34 -33 -32 -33z m-28 -188 c-41 -42 -45 -44 -62 -28 -23
21 -16 48 25 91 l31 32 25 -25 25 -25 -44 -45z m-85 -275 c18 -20 18 -21 -11
-50 l-29 -30 3 50 c4 55 10 60 37 30z m-2 -272 c-20 -21 -41 -38 -45 -38 -10
0 -10 60 -1 113 l6 38 38 -37 39 -38 -37 -38z m5 -355 c-10 -13 -13 -12 -19 4
-15 36 -10 47 11 28 16 -14 18 -21 8 -32z"/>
<path d="M2480 4464 c-267 -41 -427 -118 -585 -285 -305 -321 -381 -767 -194
-1143 97 -195 255 -354 448 -451 362 -182 785 -143 1100 100 354 271 501 779
346 1191 -84 223 -276 411 -515 503 -155 60 -331 92 -490 90 -47 -1 -96 -3
-110 -5z m30 -99 c-27 -29 -38 -31 -47 -9 -7 19 13 34 46 34 l24 0 -23 -25z
m182 -7 l-32 -33 -32 33 -33 32 65 0 65 0 -33 -32z m148 -59 c0 -32 19 -30 58
6 42 38 67 43 97 21 18 -13 18 -14 -3 -41 -34 -43 -8 -63 33 -25 l22 20 18
-20 c20 -22 55 -27 55 -7 0 7 -6 19 -12 26 -19 20 69 -26 133 -70 30 -20 88
-72 127 -114 243 -260 279 -702 86 -1053 -124 -226 -339 -395 -589 -462 -121
-33 -312 -38 -437 -12 -221 46 -416 165 -552 336 -63 79 -120 181 -111 197 4
6 27 -9 56 -36 46 -43 69 -50 69 -22 0 6 -19 30 -42 54 l-42 43 28 29 c19 20
26 36 22 47 -6 15 -11 13 -41 -16 l-35 -34 -39 38 c-32 31 -41 48 -46 88 -11
76 5 82 63 25 47 -46 72 -58 72 -35 0 7 -21 34 -47 61 l-48 48 68 66 c37 36
67 68 67 72 0 4 -20 27 -45 51 l-45 44 101 102 c82 82 100 106 94 121 -5 10
-7 24 -6 31 1 8 -6 23 -15 33 -17 19 -16 21 32 70 27 28 59 55 70 59 26 10 28
55 2 55 -9 0 -31 13 -47 29 -34 32 -32 40 21 78 27 19 31 19 46 5 14 -15 14
-18 -1 -35 -33 -36 -12 -59 25 -26 15 14 20 15 33 4 23 -19 44 3 28 28 -9 15
-4 26 32 64 l43 45 35 -35 36 -35 51 56 c29 32 57 57 64 57 7 0 25 -13 41 -30
35 -37 60 -40 51 -7 -4 17 1 30 19 47 l25 24 48 -47 c26 -26 51 -47 54 -47 4
0 30 25 59 55 l52 56 34 -33 c18 -17 33 -40 33 -49z m-480 26 c-50 -51 -59
-53 -85 -25 -24 26 -13 37 51 55 77 21 81 18 34 -30z m530 31 c0 -11 -19 -15
-25 -6 -3 5 1 10 9 10 9 0 16 -2 16 -4z m-715 -86 c-39 -40 -59 -48 -70 -30
-6 10 79 70 99 70 6 0 -8 -18 -29 -40z m-165 -205 c0 -6 -22 -33 -50 -60 l-50
-49 -25 24 c-14 13 -25 27 -25 31 0 4 21 33 46 64 l46 57 29 -28 c16 -15 29
-33 29 -39z m-168 -177 c-37 -37 -44 -41 -56 -28 -12 13 -10 22 16 68 l31 54
26 -26 26 -26 -43 -42z m93 -8 c19 -20 18 -22 -23 -63 l-42 -42 -22 23 -22 22
39 40 c21 22 42 40 45 40 4 0 15 -9 25 -20z m-174 -73 c-15 -15 7 -41 24 -27
8 7 18 3 33 -13 l22 -23 -45 -44 c-44 -43 -45 -43 -65 -25 -23 21 -22 35 7
112 8 24 20 40 25 37 6 -4 6 -10 -1 -17z m-45 -168 c3 -6 -1 -18 -10 -27 -15
-15 -16 -14 -16 11 0 27 13 36 26 16z m47 -161 c-64 -65 -83 -64 -83 5 0 34 7
48 37 79 l37 38 33 -32 33 -32 -57 -58z"/>
<path d="M2542 4165 c-47 -14 -115 -63 -155 -111 -52 -62 -116 -215 -104 -248
4 -9 18 -16 32 -16 21 0 29 8 41 38 41 100 75 160 109 196 164 166 380 40 320
-187 -16 -64 -32 -97 -110 -237 -68 -121 -95 -201 -95 -284 0 -80 6 -96 35
-96 33 0 39 15 41 90 1 79 22 133 108 289 81 146 106 220 106 307 0 97 -16
141 -75 199 -72 73 -152 92 -253 60z"/>
<path d="M2558 3053 c-27 -17 -64 -76 -78 -125 -20 -65 34 -142 105 -153 47
-7 117 24 148 66 46 63 26 171 -37 210 -38 23 -102 24 -138 2z m112 -82 c17
-33 11 -71 -15 -96 -29 -30 -66 -32 -90 -5 -17 19 -17 22 -2 53 9 17 18 40 21
50 8 25 72 24 86 -2z"/>
<path d="M989 2444 c-21 -25 -27 -485 -7 -501 16 -14 495 -50 521 -40 26 10
22 56 -5 66 -13 5 -119 14 -235 21 l-213 14 0 217 c0 206 -1 219 -19 229 -25
13 -26 13 -42 -6z"/>
<path d="M4083 2413 c-10 -3 -13 -55 -13 -207 l0 -203 -212 -13 c-117 -7 -223
-16 -235 -21 -27 -10 -32 -56 -7 -66 25 -9 505 26 521 38 10 9 13 55 13 199 0
237 -5 280 -34 279 -11 0 -27 -3 -33 -6z"/>
</g>
</svg>
