<?xml version="1.0" standalone="no"?>
<!DOCTYPE svg PUBLIC "-//W3C//DTD SVG 20010904//EN"
 "http://www.w3.org/TR/2001/REC-SVG-20010904/DTD/svg10.dtd">
<svg version="1.0" xmlns="http://www.w3.org/2000/svg"
 width="512.000000pt" height="512.000000pt" viewBox="0 0 512.000000 512.000000"
 preserveAspectRatio="xMidYMid meet">

<g transform="translate(0.000000,512.000000) scale(0.100000,-0.100000)"
fill="#000000" stroke="none">
<path d="M1775 5023 c-160 -34 -396 -159 -703 -372 -216 -150 -562 -447 -562
-482 0 -8 6 -24 14 -35 12 -16 29 -20 100 -23 l86 -3 10 -37 c10 -37 60 -319
104 -581 l24 -145 -30 -34 c-36 -41 -98 -166 -98 -198 0 -26 25 -53 49 -53 24
0 45 25 71 88 13 29 26 49 30 45 4 -4 17 -57 29 -118 26 -127 44 -155 88 -139
38 13 39 35 8 185 -15 71 -25 133 -23 139 2 5 28 -13 58 -40 60 -54 87 -61
115 -30 14 16 16 26 9 44 -13 33 -151 154 -184 161 l-27 6 -37 227 c-21 125
-48 281 -61 347 -13 66 -23 121 -21 122 2 2 34 0 71 -4 l68 -8 78 -285 c102
-372 105 -384 136 -420 40 -48 90 -68 186 -76 48 -4 87 -8 87 -9 0 -1 -9 -120
-20 -266 -11 -145 -24 -367 -29 -494 -13 -314 2 -1432 22 -1660 9 -93 21 -232
27 -307 11 -145 35 -244 76 -315 33 -57 106 -118 173 -145 l56 -22 1245 0
c944 0 1263 3 1319 12 181 31 250 97 271 266 5 42 10 682 10 1491 1 1169 -1
1419 -12 1426 -7 5 -35 9 -61 9 l-48 0 7 228 c7 245 3 281 -39 321 -22 20 -38
22 -308 31 -156 6 -392 15 -524 20 -132 5 -265 10 -295 10 l-55 0 -29 138
c-41 196 -91 396 -119 477 l-24 71 139 99 c76 54 149 112 160 128 45 63 14
127 -71 146 -25 6 -176 15 -336 21 -317 11 -522 23 -775 45 -206 18 -345 18
-435 -2z m451 -102 c289 -25 528 -39 814 -47 124 -4 231 -10 239 -14 9 -5 -43
-46 -155 -126 -93 -65 -250 -177 -349 -248 -319 -230 -428 -294 -566 -332 -50
-14 -96 -18 -209 -17 -137 2 -1300 69 -1306 76 -4 4 200 178 257 220 24 17 37
23 33 14 -11 -28 15 -54 111 -111 104 -62 131 -67 154 -24 14 24 14 28 -3 47
-10 11 -48 38 -85 60 -37 22 -73 47 -81 55 -7 9 -22 16 -33 16 -23 0 17 32
158 127 137 91 128 89 178 55 23 -17 65 -51 94 -76 28 -25 59 -46 69 -46 24 0
54 29 54 52 0 19 -70 90 -127 131 -18 12 -33 25 -33 28 0 4 13 12 29 19 24 9
34 9 58 -4 16 -8 35 -22 42 -30 16 -19 62 -21 79 -4 22 22 14 65 -15 87 -24
17 -26 22 -13 31 28 19 125 52 190 65 91 18 154 18 416 -4z m797 -448 c45
-141 137 -551 137 -609 0 -67 -25 -81 -350 -188 -434 -144 -731 -216 -1030
-250 -194 -23 -202 -22 -231 17 -13 17 -26 45 -29 62 -4 26 -18 37 -114 88
-103 55 -109 57 -132 42 -35 -22 -31 -59 9 -89 17 -13 66 -41 107 -63 57 -28
75 -42 72 -55 -3 -15 -15 -18 -77 -18 -88 0 -118 12 -139 54 -9 17 -45 141
-82 276 -36 135 -72 266 -79 293 l-14 47 45 0 c36 0 44 -3 44 -18 0 -24 26
-47 132 -117 96 -63 132 -68 144 -20 9 38 1 50 -73 100 l-68 47 75 -6 c263
-21 630 -37 715 -33 109 6 227 38 325 87 71 36 257 160 440 293 80 59 148 106
152 107 3 0 13 -21 21 -47z m897 -699 c312 -11 458 -20 463 -28 5 -6 6 -47 3
-91 -3 -44 -6 -144 -6 -222 l0 -143 -39 0 -39 0 5 133 c4 96 1 143 -9 172 -12
38 -16 40 -63 46 -72 10 -476 28 -802 35 l-282 7 38 27 c21 15 44 42 51 59
l13 32 106 -6 c58 -3 311 -12 561 -21z m-75 -215 c143 -5 282 -12 308 -15 l48
-6 -3 -126 -3 -127 -560 -13 c-796 -18 -1540 -20 -1690 -4 -112 12 -162 29
-142 48 3 4 60 15 125 25 224 34 662 143 822 205 84 33 464 37 1095 13z
m-2138 -360 c34 -9 108 -22 164 -28 56 -5 106 -14 110 -18 16 -16 29 -412 29
-883 0 -480 -15 -1640 -26 -1929 l-6 -164 -97 6 c-53 4 -114 12 -136 18 l-39
11 27 20 c56 41 66 108 18 123 -24 7 -37 1 -85 -43 l-36 -32 -25 50 c-29 57
-32 80 -9 80 27 0 132 69 139 91 8 25 -19 69 -43 69 -10 0 -42 -15 -72 -34
-30 -19 -58 -32 -61 -28 -4 4 -10 51 -14 105 l-7 97 44 0 c59 0 92 19 96 53 6
47 -13 59 -79 51 -66 -7 -62 -12 -73 99 l-6 57 38 0 c100 0 104 96 4 102 l-47
3 -3 76 -3 76 29 -5 c64 -9 99 42 57 84 -16 16 -35 24 -60 24 l-35 0 0 116 0
117 47 -7 c51 -7 83 11 83 46 0 25 -35 58 -61 58 -12 0 -32 11 -45 26 -21 22
-24 35 -24 105 0 79 0 80 23 74 12 -4 34 -15 49 -26 15 -10 36 -19 47 -19 25
0 51 26 51 52 0 26 -52 75 -89 83 -16 3 -41 16 -55 28 -22 19 -26 31 -26 79
l0 56 35 -11 c31 -9 38 -8 57 10 29 30 18 69 -26 87 -54 22 -66 49 -66 144 0
66 3 82 13 75 6 -6 27 -15 46 -22 72 -24 115 52 49 87 -17 9 -47 31 -67 48
-34 30 -36 35 -33 82 l4 51 31 -20 c56 -34 97 -20 97 32 0 22 -12 36 -60 70
-60 42 -60 42 -60 91 0 27 3 48 8 46 4 -2 19 -10 35 -17 40 -21 77 -2 77 39 0
25 -9 35 -55 66 l-54 36 6 62 c3 33 8 63 10 66 2 2 20 -14 39 -38 26 -30 43
-42 63 -42 67 0 69 56 4 124 -28 28 -40 46 -28 41 11 -4 48 -16 82 -26z m2792
-1296 c-1 -1379 -4 -1567 -33 -1621 -37 -72 -137 -90 -498 -94 l-237 -3 83 85
c85 86 142 167 178 247 18 41 18 46 3 69 -12 18 -23 24 -42 22 -21 -2 -37 -21
-82 -97 -38 -65 -84 -123 -144 -184 -56 -56 -86 -94 -83 -103 3 -8 9 -21 12
-29 5 -13 -8 -15 -86 -15 l-92 0 55 63 c117 134 143 193 97 217 -32 17 -56 4
-97 -53 -21 -29 -70 -87 -110 -129 -40 -42 -73 -82 -73 -87 0 -7 -29 -11 -77
-11 l-78 1 123 115 c126 120 141 144 106 178 -8 9 -23 16 -32 16 -10 0 -67
-45 -127 -101 -152 -139 -168 -157 -162 -185 4 -24 3 -24 -70 -24 l-75 0 86
92 c55 59 86 100 86 114 0 27 -25 54 -50 54 -27 0 -220 -199 -220 -227 0 -22
-4 -23 -82 -23 l-82 0 97 91 c116 108 124 121 102 155 -29 45 -57 33 -166 -73
-115 -111 -124 -125 -109 -153 10 -19 8 -20 -46 -20 l-57 0 76 79 c43 44 77
87 77 98 0 30 -35 57 -63 49 -27 -6 -181 -163 -199 -201 -9 -20 -19 -25 -45
-25 l-34 0 50 58 c54 62 61 84 34 114 -25 28 -49 22 -90 -24 -123 -136 -136
-148 -165 -148 l-30 0 31 26 c47 39 56 61 36 90 -18 28 -46 31 -81 7 l-25 -16
8 489 c10 605 11 2134 1 2267 -9 116 1 124 64 52 22 -25 60 -57 84 -71 42 -25
46 -25 69 -10 37 24 32 58 -12 95 l-38 30 46 1 c44 0 49 -3 85 -47 60 -74 72
-83 104 -83 52 0 64 55 20 95 -28 26 -25 35 13 35 30 0 34 -4 52 -51 11 -29
30 -58 42 -66 48 -32 86 15 64 78 -6 18 -11 34 -11 35 0 2 38 4 84 4 l84 0 7
-37 c10 -58 51 -140 75 -153 17 -9 26 -8 47 5 28 19 28 34 -5 125 -25 66 -21
70 68 70 50 0 61 -3 52 -12 -19 -19 -13 -59 21 -127 38 -77 55 -90 92 -73 24
11 27 17 22 50 -2 20 -18 65 -35 100 l-30 62 74 0 c48 0 74 -4 74 -11 0 -6 14
-27 30 -46 17 -18 30 -42 30 -51 0 -28 29 -62 54 -62 13 0 31 9 41 20 18 20
18 23 1 75 -9 30 -21 57 -26 60 -27 17 -1 25 78 25 l87 -1 39 -85 c41 -88 62
-110 97 -99 41 13 44 46 9 114 -17 35 -30 64 -28 66 2 1 47 5 101 7 81 4 97 3
97 -9 0 -9 11 -28 25 -45 14 -16 28 -42 31 -56 9 -44 19 -57 50 -60 56 -7 70
53 30 131 l-23 47 161 3 c89 1 194 4 234 5 l72 2 -1 -1287z"/>
<path d="M1217 4602 c-34 -38 -16 -64 88 -127 64 -38 110 -43 128 -14 21 34
-1 63 -85 112 -90 52 -107 56 -131 29z"/>
<path d="M1170 3886 c-30 -38 9 -83 144 -165 54 -32 57 -33 82 -17 18 13 24
24 22 44 -2 21 -22 40 -93 89 -91 63 -132 76 -155 49z"/>
<path d="M2868 2330 c-279 -7 -289 -8 -335 -31 -59 -31 -78 -63 -103 -177 -29
-131 -72 -472 -73 -577 -1 -75 2 -97 21 -132 49 -94 131 -120 507 -159 199
-21 707 -24 905 -5 248 23 334 52 386 131 21 32 27 57 35 146 16 180 -19 652
-52 717 -22 42 -53 67 -103 82 -41 12 -125 15 -475 13 -234 -1 -555 -4 -713
-8z m558 -122 c24 -48 44 -68 69 -68 33 0 49 24 42 65 l-6 35 79 0 c79 0 79 0
106 -36 22 -28 33 -34 57 -32 29 3 39 13 52 52 5 18 13 18 108 12 78 -5 106
-11 120 -24 31 -32 50 -215 51 -503 1 -243 0 -258 -19 -279 -44 -48 -98 -61
-340 -80 -175 -14 -602 -14 -766 0 -130 11 -349 37 -386 46 -21 6 -21 6 -2 25
10 10 19 26 19 34 0 21 -36 55 -60 55 -10 0 -35 8 -55 17 -30 14 -35 22 -35
50 l0 34 30 -16 c37 -19 49 -19 72 2 27 24 23 60 -9 80 -73 45 -83 70 -64 158
l6 29 34 -52 c38 -59 71 -74 101 -47 11 10 20 26 20 35 0 29 -93 155 -118 158
-13 2 -22 10 -22 21 0 28 22 135 30 144 4 4 19 -11 35 -35 43 -66 66 -88 95
-88 53 0 66 49 27 97 -32 38 -77 106 -77 115 0 5 15 8 33 8 29 0 37 -6 56 -41
58 -102 114 -135 146 -85 18 27 13 44 -27 95 -23 30 -11 41 44 41 33 0 40 -4
57 -37 21 -42 88 -113 105 -113 22 0 56 31 56 52 0 11 -14 37 -32 57 l-32 36
55 3 c53 3 55 2 91 -40 21 -24 46 -53 57 -65 23 -27 58 -21 74 14 8 18 7 31
-6 58 l-16 34 42 4 c23 2 52 4 64 5 16 2 27 -7 39 -30z"/>
</g>
</svg>
