<?xml version="1.0" standalone="no"?>
<!DOCTYPE svg PUBLIC "-//W3C//DTD SVG 20010904//EN"
 "http://www.w3.org/TR/2001/REC-SVG-20010904/DTD/svg10.dtd">
<svg version="1.0" xmlns="http://www.w3.org/2000/svg"
 width="512.000000pt" height="512.000000pt" viewBox="0 0 512.000000 512.000000"
 preserveAspectRatio="xMidYMid meet">

<g transform="translate(0.000000,512.000000) scale(0.100000,-0.100000)"
fill="#000000" stroke="none">
<path d="M4170 4945 c-429 -116 -869 -319 -1220 -563 -301 -210 -571 -478
-782 -775 l-48 -67 -87 0 c-230 0 -476 -68 -638 -176 -286 -190 -451 -554
-431 -954 6 -129 25 -243 43 -261 24 -24 51 1 73 69 99 303 340 525 643 592
31 7 59 11 62 8 3 -3 -4 -39 -15 -81 -12 -42 -31 -129 -44 -194 -21 -106 -32
-135 -111 -293 -96 -195 -101 -220 -48 -271 15 -14 140 -115 276 -223 289
-228 280 -225 374 -149 32 26 103 83 158 128 55 45 110 82 122 82 12 1 79 29
149 62 70 34 129 61 132 61 3 0 2 -44 -1 -97 -15 -230 -101 -419 -261 -570
-69 -66 -103 -91 -193 -147 -27 -16 -43 -34 -43 -46 0 -34 29 -40 136 -29 556
57 927 341 1021 780 23 111 23 347 0 478 l-17 93 78 82 c490 510 804 1254 882
2082 15 169 16 380 0 399 -19 22 -70 18 -210 -20z m114 -177 c-7 -131 -23
-288 -30 -299 -14 -24 -173 7 -240 46 -101 60 -197 176 -167 206 16 16 391
137 430 139 10 0 11 -23 7 -92z m-435 -213 c27 -26 56 -52 65 -57 10 -6 14
-18 12 -31 -3 -12 -7 -64 -11 -114 -5 -87 -4 -93 13 -93 17 0 20 11 26 99 l8
100 34 -16 c30 -15 34 -20 29 -47 -2 -17 -6 -60 -7 -96 -2 -52 0 -65 12 -65
12 0 17 20 24 88 9 90 18 101 55 78 12 -8 12 -20 -1 -88 -9 -43 -14 -81 -11
-85 12 -20 31 -4 38 30 3 20 11 58 17 85 l10 47 44 0 45 0 -5 -32 c-60 -372
-155 -699 -284 -982 -37 -80 -37 -81 -42 -46 -3 22 -10 35 -20 35 -12 0 -14
-13 -12 -67 3 -61 1 -73 -35 -140 l-38 -73 -5 70 c-4 58 -8 70 -24 73 -18 4
-18 -2 -14 -99 l5 -104 -33 -49 -33 -49 -3 69 c-2 53 -6 69 -18 69 -12 0 -16
-21 -20 -105 -5 -98 -7 -108 -35 -144 l-30 -40 -3 67 c-2 47 -7 67 -16 67 -14
0 -25 -66 -26 -150 -1 -39 -7 -52 -45 -94 l-44 -49 6 71 c5 62 4 72 -10 72
-19 0 -23 -16 -32 -115 -6 -67 -8 -72 -52 -117 -26 -26 -48 -46 -49 -45 -2 1
4 47 11 102 19 130 19 137 -2 133 -15 -3 -21 -25 -34 -128 -9 -69 -14 -130
-12 -136 6 -17 -174 -164 -317 -259 -207 -138 -449 -263 -458 -236 -4 11 -634
520 -676 546 -15 9 -14 21 13 130 72 291 171 537 314 774 57 96 61 95 72 -21
5 -48 11 -68 20 -68 22 0 23 9 10 123 l-11 108 35 51 36 51 5 -88 c3 -58 9
-90 18 -93 9 -3 12 23 12 110 l0 113 43 52 42 53 3 -97 c1 -54 7 -102 13 -108
20 -20 29 22 28 132 -1 111 -1 112 30 150 l31 38 0 -91 c0 -64 4 -95 13 -103
8 -6 17 -8 20 -4 4 3 7 59 7 123 l0 118 35 26 35 27 0 -91 c0 -82 2 -91 18
-88 15 3 18 19 22 115 l5 112 44 37 43 38 -7 -102 c-7 -98 -6 -102 13 -102 19
0 21 7 24 93 2 50 0 100 -4 109 -6 12 2 25 32 48 l40 32 0 -81 c0 -62 3 -81
14 -81 14 0 26 66 26 150 0 40 4 47 35 68 19 12 37 22 41 22 3 0 3 -39 -1 -86
-7 -81 -6 -86 11 -82 16 3 20 18 29 105 l10 102 65 42 c127 82 317 184 475
255 l160 71 18 -47 c10 -28 37 -67 66 -95z m-1825 -1182 c-60 -109 -130 -265
-176 -390 -29 -80 -32 -83 -67 -89 -157 -26 -345 -109 -465 -204 -90 -71 -187
-191 -238 -290 l-35 -71 -7 69 c-15 147 28 394 93 537 90 197 249 358 438 441
110 49 309 90 449 93 l62 1 -54 -97z m-142 -1033 c32 -25 58 -52 58 -60 0 -8
-11 -56 -25 -105 -28 -102 -31 -135 -11 -135 9 0 23 37 41 108 16 59 30 109
32 111 2 3 14 -6 27 -18 l24 -23 -24 -86 c-25 -93 -30 -132 -14 -132 14 0 25
26 45 105 10 39 22 74 26 79 12 13 69 -36 62 -54 -23 -65 -51 -186 -44 -193
17 -17 29 3 52 88 12 47 27 85 34 85 6 0 21 -10 33 -23 l22 -23 -25 -85 c-14
-46 -23 -89 -20 -96 11 -30 26 -8 50 72 18 59 30 83 38 78 34 -20 147 -117
145 -123 -2 -5 -66 -60 -143 -123 l-140 -115 -40 32 c-22 18 -129 103 -237
190 -109 87 -198 162 -198 167 0 17 161 330 168 327 4 -2 33 -23 64 -48z
m1482 -32 c3 -18 9 -107 12 -198 7 -175 1 -228 -38 -360 l-23 -75 -7 40 c-4
22 -7 61 -7 86 -1 28 -7 51 -16 59 -24 20 -27 -6 -16 -134 10 -111 9 -118 -12
-154 l-22 -37 -5 74 c-3 47 -10 76 -17 79 -10 3 -13 -21 -13 -97 l0 -101 -36
-40 c-20 -22 -41 -40 -46 -40 -5 0 -6 34 -2 86 7 81 6 86 -12 82 -17 -3 -20
-16 -25 -108 -4 -58 -7 -106 -8 -106 -8 -8 -82 -54 -87 -54 -3 0 -5 44 -3 98
3 81 2 97 -11 97 -12 0 -17 -24 -25 -114 l-10 -113 -45 -24 c-25 -13 -48 -23
-52 -24 -4 0 -5 33 -1 74 3 41 3 82 -1 92 -12 30 -27 1 -32 -62 -11 -126 -8
-120 -77 -143 -53 -18 -227 -60 -249 -61 -4 0 29 35 73 78 190 181 281 382
297 659 l7 115 95 60 c125 79 228 153 320 232 41 36 78 65 81 65 4 1 10 -14
13 -31z"/>
<path d="M3305 4177 c-120 -32 -230 -118 -279 -220 -100 -204 -22 -424 186
-522 186 -88 393 -57 512 76 183 204 89 550 -178 651 -64 25 -176 31 -241 15z
m238 -94 c86 -39 160 -123 188 -214 26 -86 22 -154 -14 -232 -32 -71 -66 -107
-129 -142 -50 -28 -60 -30 -163 -30 -98 0 -116 3 -167 27 -175 81 -246 253
-173 417 29 64 95 135 156 167 91 48 203 50 302 7z"/>
<path d="M3272 3981 c-64 -22 -119 -72 -134 -123 -22 -73 40 -98 68 -28 20 50
63 81 120 88 54 6 90 -15 110 -63 37 -88 -5 -195 -77 -195 -32 0 -49 19 -58
63 -12 56 -71 44 -71 -15 0 -97 124 -153 211 -95 71 46 101 174 63 265 -21 51
-71 100 -114 112 -47 13 -56 12 -118 -9z"/>
<path d="M2425 2299 c-6 -18 9 -38 81 -111 105 -106 119 -115 142 -95 9 8 72
42 139 76 66 33 123 66 126 73 7 21 -12 48 -34 48 -10 0 -73 -27 -138 -59
l-118 -60 -74 75 c-77 78 -112 93 -124 53z"/>
<path d="M1613 3290 c-188 -67 -299 -165 -424 -377 -55 -94 -60 -126 -18 -131
23 -3 31 7 74 80 124 213 218 298 398 358 72 24 98 50 76 76 -15 18 -42 17
-106 -6z"/>
<path d="M1200 1954 c-30 -8 -91 -32 -136 -54 -65 -32 -96 -56 -166 -128 -113
-118 -150 -169 -138 -192 10 -19 98 -45 190 -55 86 -10 86 -10 38 -63 -177
-198 -302 -517 -245 -627 30 -58 92 -95 158 -95 33 0 35 -7 13 -38 -9 -13 -30
-60 -47 -105 -30 -78 -31 -88 -31 -227 0 -165 13 -223 52 -228 37 -6 214 120
322 228 87 87 191 225 234 308 l17 33 36 -32 c91 -80 193 -79 270 2 43 45 67
104 99 235 14 60 30 116 34 124 6 10 20 -10 48 -71 22 -48 45 -89 51 -93 36
-23 81 44 117 174 14 49 18 99 17 205 -1 170 -15 231 -58 258 -119 72 -216
139 -398 275 -115 85 -225 161 -245 168 -48 17 -163 16 -232 -2z m216 -73 c22
-10 106 -68 185 -127 198 -150 271 -202 362 -258 42 -27 79 -51 82 -55 15 -26
26 -199 16 -276 -11 -87 -30 -165 -40 -165 -3 0 -28 44 -56 98 -43 83 -54 97
-75 97 -27 0 -36 -27 -96 -265 -40 -162 -75 -220 -141 -236 -52 -14 -132 43
-142 100 -7 46 -32 66 -55 47 -8 -7 -36 -52 -61 -99 -63 -118 -143 -227 -236
-320 -79 -79 -235 -199 -246 -189 -3 4 -8 46 -11 95 -9 165 46 325 152 440 41
44 57 68 54 84 -5 34 -33 33 -98 -1 -43 -23 -71 -31 -109 -31 -102 0 -126 68
-75 218 51 155 163 328 290 452 41 40 74 78 74 85 0 25 -29 39 -56 26 -14 -6
-52 -11 -86 -11 -68 0 -188 20 -188 31 0 4 39 48 88 97 71 74 100 97 157 122
132 59 239 74 311 41z"/>
<path d="M1394 1675 c-133 -66 -185 -160 -120 -214 13 -11 10 -19 -26 -64 -74
-93 -89 -167 -43 -212 13 -14 31 -25 38 -25 12 0 9 -13 -11 -62 -13 -35 -27
-91 -30 -125 -4 -59 -3 -63 26 -92 54 -54 112 -35 217 72 l72 74 27 -24 c34
-29 88 -31 116 -3 10 10 28 50 40 87 19 64 22 68 51 69 62 2 109 76 109 172 0
24 7 57 16 73 8 17 13 36 11 43 -6 16 -314 232 -350 245 -45 17 -89 13 -143
-14z m132 -63 c17 -9 85 -55 151 -101 l121 -85 -5 -60 c-3 -34 -11 -77 -17
-96 -12 -38 -46 -55 -46 -22 0 11 -7 25 -16 33 -28 23 -46 -2 -64 -91 -22
-105 -36 -143 -53 -138 -7 3 -13 27 -15 59 -5 84 -35 92 -83 22 -69 -102 -175
-203 -211 -203 -19 0 -20 4 -14 48 6 43 51 148 94 214 16 26 16 28 0 44 -15
16 -22 16 -58 4 -57 -19 -70 -5 -45 50 17 38 125 150 145 150 15 0 22 40 10
55 -8 9 -30 15 -56 15 -54 0 -58 17 -11 53 44 33 108 67 127 67 8 -1 29 -9 46
-18z"/>
</g>
</svg>
