<?xml version="1.0" standalone="no"?>
<!DOCTYPE svg PUBLIC "-//W3C//DTD SVG 20010904//EN"
 "http://www.w3.org/TR/2001/REC-SVG-20010904/DTD/svg10.dtd">
<svg version="1.0" xmlns="http://www.w3.org/2000/svg"
 width="512.000000pt" height="512.000000pt" viewBox="0 0 512.000000 512.000000"
 preserveAspectRatio="xMidYMid meet">

<g transform="translate(0.000000,512.000000) scale(0.100000,-0.100000)"
fill="#000000" stroke="none">
<path d="M2430 4466 c-139 -37 -244 -177 -226 -302 5 -40 3 -45 -26 -65 l-31
-23 -33 38 c-38 44 -56 108 -48 168 7 50 -11 74 -45 63 -25 -8 -33 -31 -32
-105 0 -69 23 -129 70 -182 l32 -36 -40 -57 c-22 -31 -45 -72 -51 -91 -14 -40
-19 -41 -48 -11 -27 29 -52 88 -52 125 0 35 -22 56 -49 47 -58 -18 -20 -167
62 -242 l42 -37 0 -114 1 -113 -26 6 c-36 9 -72 36 -99 78 -17 25 -32 37 -48
37 -47 0 -42 -57 9 -115 38 -44 88 -71 148 -80 43 -6 46 -9 68 -60 13 -29 34
-67 46 -85 l22 -33 -33 -49 c-41 -63 -57 -119 -50 -186 6 -58 20 -82 46 -82
32 0 41 21 34 80 -6 61 6 110 35 148 l18 24 80 -54 c108 -74 199 -103 324
-102 139 0 237 33 348 116 29 21 57 36 62 33 29 -18 51 -88 49 -154 -2 -75 3
-91 31 -91 70 0 66 182 -5 276 -30 40 -30 38 -1 77 13 18 35 55 49 83 23 45
31 53 64 59 55 10 105 39 145 83 43 47 54 77 38 97 -21 25 -45 17 -79 -25 -34
-42 -62 -64 -96 -74 -19 -6 -20 -1 -20 111 l0 118 38 34 c46 42 73 91 82 152
5 37 3 49 -14 69 -16 20 -23 23 -38 14 -10 -6 -19 -22 -21 -35 -8 -69 -16 -93
-44 -125 l-31 -35 -19 43 c-10 23 -37 66 -58 94 l-39 51 29 28 c49 47 73 110
74 191 0 75 -12 104 -44 104 -30 0 -40 -23 -33 -78 7 -63 -14 -126 -56 -166
l-29 -28 -31 23 c-24 18 -29 27 -24 43 5 12 8 53 8 93 0 63 -3 76 -30 114 -39
55 -95 93 -166 113 -65 19 -175 20 -239 2z m231 -81 c95 -34 151 -113 131
-186 -6 -21 -14 -33 -23 -31 -8 2 -50 13 -94 24 -99 26 -249 21 -337 -9 l-58
-20 0 33 c0 45 13 75 52 119 50 58 117 85 209 85 43 0 95 -7 120 -15z m-161
-755 l0 -501 -37 7 c-168 29 -295 120 -371 262 -148 278 -16 619 276 713 31
10 74 18 95 18 l37 1 0 -500z m197 475 c41 -14 98 -40 126 -59 57 -36 131
-111 149 -151 10 -23 8 -29 -30 -68 -48 -49 -51 -62 -20 -94 l22 -23 -47 -48
c-50 -50 -61 -78 -28 -69 13 3 32 -9 62 -39 24 -24 49 -44 56 -44 24 0 13 26
-27 65 -22 21 -40 44 -40 50 0 23 45 54 69 48 20 -5 22 -2 20 18 -2 13 0 30 5
37 12 20 -10 40 -26 24 -9 -9 -16 -8 -30 5 -18 16 -17 17 9 45 15 15 30 28 34
28 17 0 39 -107 39 -186 0 -112 -53 -279 -76 -243 -5 8 -9 23 -9 34 0 14 -7
20 -22 20 -12 0 -33 11 -47 24 -27 26 -60 23 -49 -4 9 -25 -64 -96 -93 -89
-25 7 -41 -11 -25 -30 8 -9 -1 -23 -34 -56 l-45 -44 -23 22 c-13 12 -27 19
-30 15 -4 -3 -7 183 -7 415 0 487 -14 441 117 397z m187 -683 c3 -5 -14 -28
-38 -51 -57 -55 -75 -37 -20 20 39 40 49 45 58 31z m66 -63 c0 -4 -18 -26 -39
-50 -39 -44 -39 -44 -60 -25 l-22 20 42 42 c36 36 44 41 60 31 11 -7 19 -15
19 -18z m-213 -97 c-27 -27 -34 -41 -27 -52 8 -12 16 -8 50 25 38 37 41 38 57
22 21 -20 11 -33 -52 -66 l-40 -21 -30 30 -29 30 44 45 c29 30 47 42 54 35 7
-7 -2 -23 -27 -48z m-140 -49 c-16 -16 -17 -15 -17 17 0 32 1 33 17 17 16 -16
16 -18 0 -34z m65 -30 c10 -9 18 -20 18 -24 0 -8 -92 -30 -99 -23 -5 4 49 64
58 64 2 0 13 -7 23 -17z"/>
<path d="M2272 3947 c-70 -70 -86 -97 -59 -97 7 0 30 -17 50 -38 l38 -38 -21
-19 c-20 -18 -21 -18 -48 8 -28 27 -62 36 -62 17 0 -5 13 -25 30 -43 29 -34
29 -34 10 -52 -23 -21 -26 -45 -7 -45 8 0 22 9 32 20 13 15 22 17 36 9 15 -7
21 -6 25 5 3 8 3 20 -1 26 -8 13 22 50 42 50 7 0 16 8 20 18 3 9 21 34 40 55
18 20 33 42 33 49 0 7 -19 31 -42 55 -33 34 -39 45 -29 56 9 11 8 17 -2 26
-11 9 -29 -4 -85 -62z m88 -42 l34 -35 -32 -32 -32 -33 -37 37 -37 38 29 30
c16 16 32 30 35 30 3 0 21 -16 40 -35z"/>
<path d="M2537 2988 c-13 -7 -17 -23 -17 -72 l0 -62 -292 -17 c-455 -26 -814
-56 -915 -77 -241 -48 -405 -205 -406 -388 -1 -74 14 -112 42 -112 31 0 43 25
36 73 -9 58 9 121 51 184 67 98 193 159 379 182 116 15 732 58 943 67 l162 7
0 -220 c0 -236 4 -253 49 -238 20 6 21 15 23 233 l3 227 285 3 c383 4 776 -20
942 -57 183 -42 330 -149 377 -277 12 -30 21 -59 21 -64 0 -17 34 -29 53 -19
27 16 21 69 -18 147 -67 133 -205 233 -387 281 -167 43 -554 71 -989 71 l-279
0 0 39 c0 73 -26 110 -63 89z"/>
<path d="M765 2146 c-147 -47 -226 -143 -229 -279 -1 -64 -3 -72 -28 -90 -27
-20 -28 -20 -49 -1 -38 34 -54 77 -59 158 -4 62 -9 81 -23 90 -15 9 -22 6 -39
-14 -17 -21 -19 -36 -16 -95 4 -75 29 -138 75 -187 l25 -26 -32 -46 c-17 -26
-40 -67 -51 -91 -11 -25 -23 -45 -28 -45 -10 0 -46 39 -59 66 -6 11 -14 44
-18 72 -5 38 -11 53 -26 58 -31 9 -48 -14 -48 -65 0 -62 40 -142 94 -186 l41
-35 -3 -111 -3 -111 -27 7 c-38 9 -89 50 -108 86 -12 24 -21 30 -42 27 -36 -4
-40 -37 -11 -84 32 -52 93 -92 160 -106 53 -11 60 -15 69 -44 6 -17 26 -57 45
-88 l34 -56 -25 -29 c-52 -62 -75 -167 -52 -236 14 -42 38 -55 63 -35 11 9 13
26 8 69 -4 46 -1 67 15 102 36 77 31 76 115 19 87 -59 192 -97 295 -106 123
-11 277 37 385 120 46 35 50 36 68 20 28 -25 49 -102 46 -169 -2 -59 -1 -60
25 -63 36 -4 48 25 48 111 0 66 -25 134 -62 174 l-21 23 32 45 c17 24 41 64
51 88 18 40 24 44 70 55 69 16 131 61 160 115 20 38 22 48 11 61 -23 27 -49
19 -76 -24 -23 -37 -54 -59 -100 -74 -19 -6 -20 -1 -19 108 l2 114 39 39 c48
48 75 103 81 165 5 52 -8 78 -39 78 -23 0 -39 -29 -39 -72 0 -30 -50 -128 -65
-128 -2 0 -14 19 -26 43 -12 23 -37 64 -56 90 l-34 48 32 40 c17 22 40 62 50
89 41 109 9 229 -51 190 -11 -7 -14 -25 -12 -73 4 -73 -24 -147 -64 -173 -21
-14 -25 -14 -53 7 -25 18 -28 25 -20 46 15 40 10 135 -10 179 -26 58 -93 111
-169 134 -73 23 -185 25 -247 6z m255 -90 c81 -42 118 -107 104 -182 -5 -27
-10 -34 -23 -29 -110 44 -279 57 -386 29 -33 -8 -70 -18 -82 -21 -20 -5 -23
-1 -23 26 0 75 63 151 152 183 68 24 205 21 258 -6z m-188 -743 c-2 -274 -5
-499 -6 -501 -10 -9 -146 32 -198 60 -113 60 -190 149 -238 273 -31 80 -34
242 -6 325 36 108 105 201 195 263 55 38 164 77 216 77 l40 0 -3 -497z m168
482 c142 -38 271 -142 330 -267 17 -34 30 -68 30 -75 0 -6 -25 -35 -55 -64
-59 -56 -74 -96 -31 -85 15 4 28 0 36 -9 11 -13 8 -21 -15 -45 -19 -20 -35
-28 -47 -24 -25 8 -42 -4 -28 -21 8 -10 8 -19 -2 -34 -16 -26 -3 -39 24 -22
37 23 40 -3 4 -38 -32 -31 -34 -32 -47 -14 -27 37 -39 36 -77 -8 -34 -38 -40
-41 -60 -30 -18 10 -23 9 -28 -4 -4 -8 -1 -21 5 -29 15 -18 -18 -47 -46 -40
-25 7 -39 -11 -24 -30 8 -9 5 -19 -13 -35 -14 -13 -29 -20 -35 -16 -8 4 -11
146 -11 456 0 509 -10 461 90 434z m379 -477 c1 -35 -9 -35 -39 -3 l-23 25 24
26 24 26 6 -24 c4 -13 7 -35 8 -50z m-17 -102 c-2 -15 -7 -39 -13 -53 l-10
-27 -27 27 -26 27 29 30 c34 35 51 34 47 -4z m-42 -112 c0 -13 -42 -74 -50
-74 -22 0 -20 24 6 51 26 27 44 37 44 23z m-136 -42 c8 -13 -51 -65 -64 -57
-8 5 -3 16 16 36 29 30 39 35 48 21z m55 -55 c8 -10 4 -20 -19 -42 -25 -24
-32 -26 -45 -15 -14 12 -13 16 11 42 31 32 37 33 53 15z m-145 -36 c8 -12 -31
-44 -44 -36 -8 5 -6 13 6 26 19 21 30 24 38 10z m53 -58 c5 -14 -34 -36 -48
-27 -7 4 -4 13 7 25 18 20 35 21 41 2z m-107 -31 l28 -29 -35 -12 c-30 -11
-37 -11 -54 5 -19 17 -19 18 3 41 12 13 23 23 26 23 2 0 16 -13 32 -28z m-95
-63 c-4 -5 -13 -9 -22 -9 -13 0 -13 3 -3 15 13 15 35 11 25 -6z"/>
<path d="M2411 2139 c-51 -16 -76 -32 -121 -77 -68 -68 -96 -136 -87 -213 6
-46 4 -50 -25 -71 l-31 -22 -33 38 c-38 44 -56 108 -48 168 7 50 -11 74 -45
63 -26 -8 -34 -35 -33 -107 1 -67 25 -128 71 -180 l32 -36 -40 -57 c-22 -31
-45 -72 -51 -91 -14 -40 -19 -41 -48 -11 -27 29 -52 88 -52 125 0 48 -34 67
-65 35 -36 -36 8 -166 78 -230 l42 -37 0 -114 1 -113 -26 6 c-36 9 -72 36 -99
78 -17 25 -32 37 -48 37 -47 0 -42 -57 9 -115 38 -44 88 -71 148 -80 43 -6 47
-10 64 -53 11 -26 31 -65 46 -86 l27 -39 -34 -49 c-41 -63 -57 -119 -50 -186
6 -58 20 -82 46 -82 32 0 41 21 34 80 -6 61 6 110 35 148 l18 24 80 -54 c108
-74 199 -103 324 -102 139 0 237 33 348 116 29 21 57 36 62 33 29 -18 51 -88
49 -154 -2 -75 3 -91 31 -91 70 0 66 182 -5 276 -30 40 -30 38 -1 77 13 18 35
55 49 83 23 45 31 53 64 59 55 10 105 39 145 83 43 47 54 77 38 97 -21 25 -45
17 -79 -25 -34 -42 -62 -64 -96 -74 -19 -6 -20 -1 -20 110 l0 116 46 47 c62
62 95 163 69 212 -23 41 -70 16 -70 -37 0 -44 -16 -84 -47 -116 l-25 -26 -29
55 c-16 30 -42 72 -59 93 l-29 37 29 28 c61 59 93 175 68 250 -14 42 -38 55
-63 35 -11 -9 -13 -25 -9 -66 8 -65 -12 -127 -55 -168 l-30 -28 -31 22 c-22
16 -29 27 -24 39 13 31 16 129 5 163 -19 57 -74 112 -142 143 -87 39 -215 45
-308 14z m284 -89 c70 -35 97 -78 93 -150 -2 -43 -6 -54 -18 -52 -8 2 -51 13
-95 24 -99 26 -249 21 -337 -9 l-58 -20 0 33 c0 18 4 44 9 57 16 43 74 99 126
124 43 21 62 23 140 21 72 -2 100 -8 140 -28z m-195 -740 l0 -500 -42 6 c-400
61 -569 567 -286 854 79 80 200 138 291 139 l37 1 0 -500z m195 476 c93 -30
160 -72 224 -142 46 -50 101 -146 101 -175 0 -17 -30 -49 -46 -49 -15 0 -46
-59 -38 -72 4 -5 16 -7 29 -4 14 4 28 -1 39 -13 21 -23 4 -40 -20 -20 -22 18
-43 -4 -27 -30 10 -16 7 -23 -18 -46 -33 -29 -35 -60 -5 -60 30 0 29 -19 -4
-50 l-30 -29 -25 24 c-19 18 -28 21 -37 12 -9 -9 -6 -18 12 -37 l24 -26 -36
-36 c-21 -21 -41 -33 -48 -28 -8 5 -2 17 20 40 31 32 33 59 4 53 -7 -2 -58
-47 -113 -101 -55 -54 -105 -96 -111 -92 -7 4 -10 157 -10 456 0 517 -14 466
115 425z m345 -402 c0 -22 -2 -25 -15 -14 -12 10 -13 16 -4 26 16 20 19 18 19
-12z m-22 -163 c9 -5 11 -17 6 -35 l-6 -27 -24 22 c-18 17 -21 25 -13 36 13
15 19 16 37 4z m-23 -91 c7 -11 -19 -65 -36 -75 -6 -4 -16 -2 -22 4 -8 8 -4
18 16 39 15 16 24 31 20 35 -3 4 -1 7 5 7 6 0 14 -4 17 -10z m-74 -106 c11
-13 6 -21 -28 -56 -41 -40 -41 -40 -53 -18 -10 20 -8 26 21 56 37 39 42 40 60
18z m-158 -51 c9 -9 -33 -53 -50 -53 -19 0 -16 10 9 37 23 24 30 27 41 16z
m61 -65 c-10 -15 -65 -39 -75 -32 -7 4 0 17 16 34 23 24 31 27 46 17 10 -6 15
-15 13 -19z m-124 -33 l23 -24 -28 -11 c-22 -9 -31 -7 -46 6 -18 16 -18 18 -3
36 22 23 26 23 54 -7z m-90 -55 c-20 -13 -33 -13 -25 0 3 6 14 10 23 10 15 0
15 -2 2 -10z"/>
<path d="M2341 1676 c-16 -17 -29 -22 -48 -18 -23 4 -25 2 -20 -19 5 -18 -3
-32 -43 -71 -28 -27 -50 -52 -50 -55 0 -4 14 -22 32 -40 l32 -33 -27 -28 c-15
-15 -27 -33 -27 -40 0 -22 34 -12 56 15 19 24 24 26 38 14 23 -19 45 1 26 24
-10 12 -10 18 0 30 7 8 19 15 26 15 8 0 14 5 14 12 0 6 11 26 25 44 l25 33
-29 34 -30 33 26 26 c14 14 22 31 19 37 -10 16 -20 14 -45 -13z m-7 -105 c15
-16 15 -19 1 -31 -21 -18 -61 16 -44 37 15 17 23 17 43 -6z m-50 -84 c-8 -22
-17 -21 -39 3 -15 16 -16 22 -5 35 12 15 15 14 32 -3 11 -11 16 -25 12 -35z"/>
<path d="M4159 2146 c-144 -39 -233 -148 -228 -281 2 -59 0 -66 -25 -86 -25
-19 -28 -20 -50 -5 -42 27 -68 96 -64 171 2 50 -1 68 -12 75 -61 39 -92 -81
-50 -193 11 -29 35 -70 54 -90 l34 -38 -24 -28 c-13 -16 -38 -56 -54 -90 -17
-34 -34 -61 -39 -61 -24 0 -71 86 -71 130 0 59 -36 90 -68 58 -15 -15 -15 -75
0 -119 16 -47 61 -111 95 -132 l28 -19 0 -114 c0 -69 -4 -114 -10 -114 -33 1
-97 43 -120 79 -27 43 -53 52 -75 26 -11 -13 -9 -23 6 -56 25 -57 92 -106 165
-121 54 -11 59 -14 75 -52 10 -23 31 -63 47 -89 l29 -48 -20 -22 c-38 -40 -63
-113 -63 -182 0 -80 13 -107 49 -103 27 3 27 4 27 83 1 81 15 126 49 154 13
11 22 7 59 -23 85 -70 244 -126 357 -126 111 0 254 52 349 126 24 19 48 34 52
34 4 0 20 -25 35 -55 23 -48 26 -63 20 -114 -5 -45 -3 -61 8 -70 26 -21 50 -8
64 34 23 69 0 174 -53 236 l-24 30 27 38 c15 20 38 60 51 88 22 48 26 51 76
62 63 14 124 55 154 105 29 46 25 80 -10 84 -20 2 -30 -5 -50 -35 -21 -33 -88
-82 -113 -83 -4 0 -5 28 -2 63 3 34 2 85 -2 114 -9 52 -9 52 28 82 95 76 127
274 40 246 -11 -4 -20 -15 -20 -26 0 -43 -23 -109 -50 -140 l-27 -33 -20 44
c-11 25 -37 67 -57 94 l-38 48 25 27 c46 48 72 111 75 186 3 59 1 74 -16 95
-17 20 -24 23 -39 14 -14 -9 -19 -28 -23 -90 -5 -81 -21 -124 -58 -158 -21
-18 -22 -18 -56 4 -28 17 -34 25 -27 38 50 95 -6 244 -113 299 -80 42 -214 54
-307 29z m215 -77 c95 -26 152 -97 143 -175 -2 -25 -7 -47 -9 -50 -3 -2 -31 6
-64 17 -82 30 -280 33 -372 5 -34 -11 -65 -16 -68 -13 -4 3 -1 29 6 58 16 64
75 129 141 152 52 18 168 21 223 6z m-148 -741 c-6 -386 -10 -486 -21 -497
-21 -21 -94 -5 -184 40 -123 61 -204 160 -245 298 -21 71 -21 220 0 292 58
198 233 343 418 348 l39 1 -7 -482z m167 467 c197 -51 339 -205 370 -399 l6
-39 -29 28 c-20 20 -27 32 -20 39 14 14 12 36 -3 36 -18 0 -78 -60 -71 -71 3
-5 16 -9 28 -9 13 0 29 -7 36 -15 17 -21 -16 -61 -36 -44 -19 15 -36 1 -28
-23 4 -14 -3 -29 -26 -53 l-32 -33 60 -63 c59 -60 60 -62 45 -86 l-16 -24 -50
50 c-28 28 -56 51 -63 51 -16 0 -19 -36 -3 -45 7 -5 5 -13 -6 -26 -13 -13 -25
-16 -46 -12 -30 6 -40 -12 -19 -33 7 -7 4 -16 -10 -29 -16 -14 -23 -16 -32 -7
-9 9 -9 15 0 24 18 18 14 38 -7 38 -11 0 -36 -18 -57 -40 -21 -22 -43 -40 -50
-40 -6 0 -15 -10 -20 -22 -11 -28 -18 615 -9 760 5 69 11 102 19 102 6 0 38
-7 69 -15z m377 -483 c0 -16 -39 -44 -50 -37 -8 5 -6 13 6 26 17 19 44 26 44
11z m-70 -69 c0 -12 -33 -43 -47 -43 -17 0 -17 10 4 32 16 18 43 25 43 11z
m44 -41 c3 -5 0 -25 -6 -45 l-11 -37 -24 22 -23 22 22 23 c23 24 34 28 42 15z
m-97 -183 c7 -3 3 -14 -12 -31 l-23 -26 -28 29 c-27 28 -27 29 -9 49 18 20 19
20 39 1 12 -10 26 -20 33 -22z m-88 -102 c-22 -18 -23 -17 -48 7 -24 25 -24
26 -6 46 l18 20 29 -27 29 -28 -22 -18z m-133 42 c10 -17 -23 -46 -38 -31 -8
8 -8 15 2 27 15 18 26 19 36 4z m59 -59 c20 -22 20 -22 -11 -38 -16 -9 -22 -7
-33 9 -9 16 -9 24 0 35 15 19 23 18 44 -6z m-122 -31 c-5 -17 -2 -20 17 -17
36 5 35 -19 0 -27 -17 -4 -32 -5 -33 -3 -1 1 -11 13 -21 26 -18 21 -18 23 -1
42 22 24 46 10 38 -21z"/>
<path d="M4026 1621 c-4 -5 -4 -15 -1 -23 3 -8 -6 -25 -19 -37 -21 -20 -28
-22 -41 -11 -23 19 -44 -3 -24 -26 12 -14 10 -19 -11 -38 -30 -26 -70 -76 -70
-87 0 -14 32 -10 50 6 15 14 18 14 30 0 11 -13 9 -19 -8 -38 -17 -18 -19 -26
-10 -35 9 -9 17 -7 35 10 18 17 26 19 35 10 9 -9 7 -17 -10 -35 -24 -26 -29
-57 -9 -57 8 0 24 11 36 24 14 15 30 22 42 19 15 -4 19 0 19 19 0 28 17 48 35
42 29 -11 25 20 -5 51 -28 29 -31 36 -20 50 19 22 -2 44 -25 25 -12 -10 -18
-10 -30 0 -14 12 -13 16 11 41 25 26 29 27 44 14 19 -17 50 -20 50 -5 0 11
-80 90 -92 90 -4 0 -9 -4 -12 -9z m-27 -187 c-14 -14 -17 -14 -29 0 -10 13
-10 19 0 32 12 14 15 14 29 0 14 -15 14 -17 0 -32z m56 -24 c4 -6 1 -17 -5
-26 -10 -11 -16 -12 -26 -3 -11 9 -11 15 -3 25 14 17 25 18 34 4z"/>
</g>
</svg>
